<svg id="Layer_1" data-name="Layer 1" xmlns="http://www.w3.org/2000/svg" width="714.74" height="714.74" viewBox="0 0 714.74 714.74"><defs><style>.cls-1{fill:#fff;}.cls-2{fill:#1b1a1a;}.cls-3{fill:#68a5ce;}</style></defs><title>johns_hopkins_blue_jays_logo_freelogovectors.net</title><path class="cls-1" d="M319.58,732.37l-1-.42c-87-35.78-169.44-133.82-170.26-134.8a552.89,552.89,0,0,1-72.2-117.32C55.58,434.89,40.24,386.1,30.5,334.76l-.21.17-3-18.24C19,265.49,16,211.09,18.45,155v-.26c-.09-12,3.4-28.55,34.57-34.3l.19,0,34.27-6c37.71-6.69,67.57-12,116.68-15.76-13.52-40.07-59.54-59-60-59.16L113.08,27.25l32.62-7.41a90.11,90.11,0,0,1,19.84-2.21c21.15,0,43.13,7.16,65.34,21.27,20.44,13,40.67,31.67,60.17,55.5l5.79-.15c7.26-.2,14.76-.39,22.29-.56h.47c131.28,2.85,171.33,10,232,20.76,9.6,1.71,21.42,3.82,34.18,6l.15,0c31.27,5.77,34.78,22.35,34.7,34.32v.64c4.44,102.21-8.74,196.49-39.21,280.07l-.75,2C732.39,497.15,732.44,572.71,732.3,577.22c.07,1.85.49,14.45-2,19.89l-1,2.11-2.17-.92c-19.16-8.17-26.91-10.49-27-10.53l-.27-.08a166.66,166.66,0,0,0-17.5-6q-9.82-2.91-19.85-5c-15-2.27-32-3.36-51.75-4.63-27.65-1.79-58.93-3.81-94-9.81l-.64.94c-56.85,82.79-122.79,130-168.1,154.93l-1.19.66v0l-11.87,6.51-.05-.28c-2.83,1.43-5.42,2.71-7.88,3.88l-7.37,3.51" transform="translate(-17.63 -17.63)"/><path class="cls-1" d="M316.23,319.19a2.46,2.46,0,0,0-.33,0,2.68,2.68,0,0,1,.33,0M254,397.38l.11,0c-.14,0-.11,0-.11,0" transform="translate(-17.63 -17.63)"/><path class="cls-2" d="M308.12,114.78h0q8,11.32,15.4,23.13C380.33,229,434.63,261.37,477.37,296.59c60.74,50.07,66.4,111.74,66.4,111.74a146,146,0,0,1,13.63,7.55c2.16,1.3,3.92,2.48,5.46,3.61l1,.71s0,0,0,0c3.95,3.08,6.45,6,10.74,10.61,30.14-82.72,43.22-175.66,38.75-277.72v-.83c.07-9.36-1.9-19.71-26.23-24.2q-17.22-2.93-34.41-6c-60.41-10.76-100.33-17.86-231.35-20.7-7.77.18-15.18.35-22.31.55,3,4.1,6.07,8.46,9.09,12.84M38.52,313.58c2.86-2.42,8.26-7.06,16.66-13.4l0,0c69.29-52.29,127.9-46.77,127.9-46.77-3-10.43,3.08-10.88,6-16.22a108.19,108.19,0,0,1-4.89-9.92l-14-33.48,10,10.25L175,175.85l7.16,10.05-2.3-28.65,6.63,8,1.06-21.46,6.86,13.59c.26-.8.58-1.64.87-2.51l7.55-19.48,2.45,8.77c2.76-16.39,4.55-27.52,3.27-37.18-49.87,3.71-79.91,9-118.1,15.8-10.67,1.89-21.94,3.89-34.58,6-24.27,4.46-26.23,14.77-26.17,24.1v.56c-2.53,57.66.78,111,8.8,160.13" transform="translate(-17.63 -17.63)"/><path class="cls-2" d="M499.66,494.94c.69,0,1.37,0,2.06.07,1.11.06,2.21.12,3.37.2,1.5.1,3,.26,4.57.4h0q17.1,1.49,34,4.46l.92.35c57.91,10.84,120.9,36.2,176.48,71.3,0,0,3-74.34-153.53-133a10.65,10.65,0,0,0-.57-1.19c-7.4-12.14-22.68-20.9-34-26.7,0,0-5.54-62.89-66-112.7-42.48-35-96.5-67.25-153-157.84q-8.74-14.07-18.52-27.47h.09c-3.85-5.24-7.08-9.39-9.76-12.73-46.07-58-95.49-84.58-137.9-74.94,0,0,60.25,23.8,69.17,78.14h0a93.71,93.71,0,0,1,1.09,13h0c0,2.31-.06,4.68-.22,7.1L218,124.9a1.15,1.15,0,0,1,0,.19l0,.22a181,181,0,0,1-3.3,22.13l-2.44-8.73-7.49,19.41c-.3.86-.59,1.7-.86,2.51L197,147.08l-1,21.4-6.58-8,2.27,28.57-7.11-10,5.11,28.13L179.74,197l13.93,33.39c.15.4,1.75,4.16,4.86,9.9-2.88,5.32-12.27,10.29-3.74,21.17,0,0-65.65-10.91-138.5,48.95,0,0-.06.07-.1.08-1.14.93-2.28,1.9-3.42,2.86v0q-6.36,5.25-12.63,10.61C60,432.25,103,519.23,156.43,585.49l0,.09v-.06a.7.7,0,0,1,.13.16c-.45-9.31.7-33.27,32.92-48.71-.4.59-.74,1.18-1.11,1.77C178,558.35,175.32,574.82,176.24,588a64,64,0,0,0,15.47,33.22c-1.72-5.1-2.93-14.28.57-26,5-20.26,17.35-31.09,21.42-34.2.33-.32.6-.65.92-1a3.93,3.93,0,0,0-.14.41l.58-.41c-6.16,14.07-8.42,30.25-7.57,45,2.32,15.24,10.2,33.36,29.57,53.55-2.18-7.84-2.62-25.64,1.78-37.36-.86,11.72,7.49,44.72,24.67,59,13.87,11.56,20.64,16.42,41.6,28.34,3.76,1.94,7.53,3.9,11.27,5.69l2.88,1.37,2.88-1.37c4-1.94,8.43-4.12,13.1-6.57-.5-4.5-1.41-14-1.41-14-5.27-131.49,78.5-158.78,78.5-158.78s19.16,18.36,35-5.17c7.7,2.37,14.1,4.31,20.85,6.17l5.56,1.49,2.41.6c9.4,2.38,20.45,4.81,36.7,8,61.55,11.11,112.57,9.51,150.91,15.35,6.51,1.35,13.34,3.05,20.89,5.27A172.84,172.84,0,0,1,703.38,573c-45.49-39.78-113.59-58.53-166.72-67.71q-38.58-5.82-77.48-9.26c2.56-.38,16.61-2.38,40.48-1.13" transform="translate(-17.63 -17.63)"/><path class="cls-2" d="M467.23,547.46q-8.07-2.33-16-5c-19.38,23-35.67,6-35.67,6S344,568.9,344.05,695.24A142.3,142.3,0,0,0,345.92,710c43-24.35,106.56-70.85,161.33-152.83a363.44,363.44,0,0,1-40-9.74" transform="translate(-17.63 -17.63)"/><path class="cls-3" d="M197.72,40c14.54,6.16,25.72,16.38,32.19,21.89,26.94,22.85,47.81,48.61,70.39,84.67C348.77,224.09,396.45,261,434.77,290.66c8,6.2,15.56,12,22.77,18,27.91,23,43.24,49.16,52.28,69.08,6.47,13.49,9.29,25.5,8.58,24.34-1.85-2.9-16.92-19.08-16.92-19.08.49.61,8,15.55,8.7,24.91,0,0-8.88-13.81-20.21-21.31,0,0,6.72,10.58,8.22,18.42a74,74,0,0,0-18.81-15.21,129.46,129.46,0,0,1,5.23,13.54s-8.73-8.73-15.42-8.22c0,0,4.45,8.35,6,12.19,0,0-7.52-7.12-14.39-5.87a80.9,80.9,0,0,1,3.09,7.68s1.25,4.48-.56,5c0,0-37.13-37.33-38.6-42.95-11.5-43.21-60.19-61-60.19-61-14.62-6.71-36.71-8.21-54.78-15-22.06-6.55-53.54-16.55-75-36.88A132.15,132.15,0,0,1,207.12,221a56.32,56.32,0,0,0,10.24,7.12s-11.1-13-13.5-24.75c0,0,4,5,13,9.93,0,0-11.69-16-11.41-24.66a22.76,22.76,0,0,0,11.91,10.2s-8.37-15.43-7.76-26.71c0,0,4.77,8.49,10.31,10.63a24.25,24.25,0,0,1-1.75-22.3s1.88,6,5.1,6.87c0,0-2.8-14.49,8.1-16.93a240.06,240.06,0,0,0,3.45-24.32c3.55-33.11-12-62.78-37.14-86.12m30.8,586.31c-.43-.44-13.13-33.48,9.19-84.78,0,0-23.64,10-43.33,33.48,0,0,2.62-19.57,28.45-54.35,0,0-57.33,13.91-67.84,43C113.75,504.54,89.41,443.3,75.74,394.56c-.33-1.1-.69-2.2-1-3.31a2.76,2.76,0,0,1,.18.4,475.46,475.46,0,0,1-12.25-57.54S121.15,272.9,205,280.77c0,0,4.58,10.36,9.48,16.34-68.58,47.14-32.8,214.83,169,197.87-84.9,4.78-107.66,27.39-121.23,40s-31.94,48.69-33.69,91.3" transform="translate(-17.63 -17.63)"/><path class="cls-1" d="M318.5,704.45S287.88,690.56,268.21,668s-8.13-56.8-8.13-56.8c-3.32,0-9.31,10.56-9.31,10.56-1.48-13.13,10.61-26.15,10.61-26.15-5.93.49-13,7.21-13,7.21,2.71-10.9,15.28-23.26,15.28-23.26a23.46,23.46,0,0,0-14.44,6.38c2.31-8.28,18.24-20.26,18.24-20.26-10.14,2.12-15.5,5.8-15.5,5.8,5.77-10.48,20.27-19.76,20.27-19.76a57.89,57.89,0,0,0-12,3.89s11.86-19.53,29.81-27.89,30.41-13.29,56.82-18.6,41.47-6,41.5-5.56c.47,5.56,8.85,22.26,12,27.67-87.86,51.45-83.15,145.55-81.83,173.24M588.67,461c99.36,38.71,121.19,92.72,121.19,92.72s-3.55-3.05-5-4.55c-58.09-61.87-135.56-81-151.77-84.67-1-.2-7.24-1.29-7.63-1.14-11.33,5.59-25.89,7.45-30.84,2.07-4-4.31-1.88-14.49,13-17.23,17-3.1,46,7,61,12.8M373,480.36c-9.93.73-37.57,2.08-61.11-2.93-28.07-5.95-74.59-26.71-76.42-47.21-1.51-16.9,12.18-19,12.18-19a38.66,38.66,0,0,0-16.11-1c5.86-3.59,24-6.95,24-6.95-4.9-2.15-15.91-3.11-15.91-3.11a108.39,108.39,0,0,1,22-4.06c-6.76-1.92-8.34-2.2-8.71-2.2,6.86-2.15,17.82-5.94,33.63-3.8s53.23,13.66,53.23,13.66c-43.47-16.51-65-33.37-63.7-49.33,1.38-16.81,24.86-13.09,24.86-13.09A98,98,0,0,0,285,334.92a96.15,96.15,0,0,1,27.39-2.16c-7.34-5-18.82-8.12-18.82-8.12,14.39-2.4,33.23,2.38,33.23,2.38-7.95-6.77-11.12-7.74-12-7.86,45.8,3.29,71.63,30.74,79.9,47.21-26,.41-46.06,24.64-46.06,50.18,0,24,17.44,47.64,41.12,50.74a46.23,46.23,0,0,1-51.64-20.45A47.32,47.32,0,0,0,373,480.36" transform="translate(-17.63 -17.63)"/><path class="cls-1" d="M409.06,458.39l-.14.08c-3.28.33-6.75.29-9.93.29-21.35,0-38.06-21.33-38.06-42.36S377.32,375,398.67,375a15.89,15.89,0,0,1,2.17.07,10.42,10.42,0,0,0,1,2.58A39.51,39.51,0,0,0,367,404.54l-.14.43a37.92,37.92,0,0,0-1.73,11.44c0,21.49,17.78,39,39.62,39a40.84,40.84,0,0,0,6.84-.61c-.86,1.17-1.74,2.35-2.52,3.58" transform="translate(-17.63 -17.63)"/><path class="cls-1" d="M412,408.5a11,11,0,0,1-4.24-.79,11.39,11.39,0,0,1,.57-21.54c2.18,2.71,4.69,5.69,7.35,8.8,2.3,2.56,4.72,5.19,7.18,7.8a8.2,8.2,0,0,1-1.58,1A13.84,13.84,0,0,1,412,408.5m62.38,59.86c-20.56,0-48,8.36-48,27.65a32.94,32.94,0,0,0,4.3,16.31l-3,2.28c-5.19-7-10.44-12.27-10.44-26.92,0-23.91,20.63-43.23,46.05-43.23a52,52,0,0,1,6.67.42c0,.07.17.09.4.13,12.42-23.5,34.64-26.21,46.17-25.14,15.75,1.41,25.13,5.33,35.71,18.51.71.89-4.41.59-5.37.14-9.78-4.65-19.53-6.11-31.45-6.11-20.08,0-29.21,7.61-39,23.48-3.9,6.31-1.77,12.48-2,12.48M451,432.93a83.84,83.84,0,0,0-11.25,3.49,48.48,48.48,0,0,0,3.48-9.5c.12-.53.23-1.1.34-1.66,3.31,3.36,6,6.1,7.43,7.67" transform="translate(-17.63 -17.63)"/></svg>